<?xml version="1.0" standalone="no"?>
<!DOCTYPE svg PUBLIC "-//W3C//DTD SVG 20010904//EN"
 "http://www.w3.org/TR/2001/REC-SVG-20010904/DTD/svg10.dtd">
<svg version="1.0" xmlns="http://www.w3.org/2000/svg"
 width="75.000000pt" height="75.000000pt" viewBox="0 0 75.000000 75.000000"
 preserveAspectRatio="xMidYMid meet">

<g transform="translate(0.000000,75.000000) scale(0.100000,-0.100000)"
fill="#000000" stroke="none">
<path d="M427 619 c7 -7 15 -10 18 -7 3 3 -2 9 -12 12 -14 6 -15 5 -6 -5z"/>
<path d="M467 612 c2 -10 13 -19 25 -19 19 -2 19 -1 -3 18 -27 23 -28 23 -22
1z"/>
<path d="M250 600 c-13 -8 -12 -10 3 -10 9 0 17 5 17 10 0 12 -1 12 -20 0z"/>
<path d="M205 570 c-4 -6 -10 -8 -14 -6 -10 7 -51 -22 -51 -35 0 -6 5 -7 10
-4 6 3 10 1 10 -6 0 -7 3 -9 8 -5 4 4 7 11 7 16 0 4 11 17 25 29 14 11 22 20
18 21 -4 0 -10 -5 -13 -10z"/>
<path d="M555 564 c11 -8 20 -20 21 -27 0 -7 4 -19 7 -27 3 -8 10 -28 15 -45
10 -28 10 -26 11 22 1 46 -2 54 -28 72 -33 24 -56 28 -26 5z"/>
<path d="M135 459 c-4 -25 -3 -45 3 -51 12 -12 19 14 20 65 0 41 -15 32 -23
-14z"/>
<path d="M228 385 c-2 -63 0 -115 5 -115 4 0 7 20 7 44 l0 43 56 6 c67 7 84
19 84 61 0 54 -31 76 -104 76 l-45 0 -3 -115z m120 83 c15 -15 15 -61 0 -76
-7 -7 -34 -12 -60 -12 l-48 0 0 50 0 50 48 0 c26 0 53 -5 60 -12z"/>
<path d="M500 402 c0 -63 -4 -102 -12 -110 -19 -19 -55 -14 -78 10 -15 16 -20
18 -20 7 0 -25 22 -39 60 -39 59 0 70 20 70 133 0 58 -4 97 -10 97 -6 0 -10
-39 -10 -98z"/>
<path d="M136 334 c1 -32 3 -66 3 -75 1 -22 30 -52 64 -67 38 -16 34 -9 -13
22 -39 25 -40 28 -41 84 0 31 -4 66 -8 76 -4 12 -6 -5 -5 -40z"/>
<path d="M262 154 c10 -10 20 -16 22 -13 3 3 -5 11 -17 18 -21 13 -21 12 -5
-5z"/>
<path d="M300 136 c0 -2 8 -10 18 -17 15 -13 16 -12 3 4 -13 16 -21 21 -21 13z"/>
</g>
</svg>
